# xmcd
#
# Track frame offsets:
#	150
#	18315
#	38310
#	54884
#	73644
#	94819
#	121454
#	126395
#	143691
#	149364
#	167324
#	180159
#	195541
#	218314
#	234347
#	248705
#	272158
#	288667
#	320190
#
# Disc length: 4570 seconds
#
# Revision: 1
# Processed by: cddbd v1.5.1PL2 Copyright (c) Steve Scherf et al.
# Submitted via: audiograbber 1.83.01
#
DISCID=0611d813
DTITLE=Captain Beefheart - The Captain Live In Liverpool, 1980
DYEAR=1980
DGENRE=Avantgarde
TTITLE0=Toaster (bass solo)
TTITLE1=Nowadays A Woman's Gotta Hit A Man
TTITLE2=Abba Zaba
TTITLE3=Hot Head
TTITLE4=Dirty Blue Jean
TTITLE5=Best Batch Yet
TTITLE6="One Man Sentence" (poem)
TTITLE7=Safe As Milk
TTITLE8=Flavour Bud Living
TTITLE9=Her Eyes Are A Blue Million Miles
TTITLE10=One Red Rose That I Mean
TTITLE11=Doctor Dark
TTITLE12=Bat Chain Puller
TTITLE13=?
TTITLE14=?
TTITLE15=?
TTITLE16=?
TTITLE17=?
TTITLE18=?
EXTD=Probably A bootleg, also missing the Last titles...
EXTT0=
EXTT1=
EXTT2=
EXTT3=
EXTT4=
EXTT5=
EXTT6=
EXTT7=
EXTT8=
EXTT9=
EXTT10=
EXTT11=
EXTT12=
EXTT13=
EXTT14=
EXTT15=
EXTT16=
EXTT17=
EXTT18=
PLAYORDER=
